<svg xmlns="http://www.w3.org/2000/svg" width="1128" height="930" viewBox="0 0 1128 930">
<g>
<path d="M 314.07 706.74 L 309.50 714.97 L 266.25 714.99 C242.46,714.99 223.00,714.73 223.00,714.39 C223.00,714.06 224.95,710.35 227.32,706.14 C233.27,695.64 276.36,620.65 289.48,598.00 C298.90,581.71 314.02,555.51 337.94,514.00 C341.90,507.12 345.63,501.05 346.23,500.50 C346.84,499.95 346.11,501.64 344.61,504.26 C341.48,509.76 341.90,511.30 346.34,510.59 C348.08,510.31 352.54,509.78 356.26,509.41 C362.73,508.77 363.14,508.86 365.54,511.45 C366.92,512.93 369.50,514.57 371.27,515.08 C376.41,516.55 389.20,516.17 391.44,514.47 C392.51,513.66 395.45,513.00 397.97,513.00 C401.40,513.00 403.01,512.47 404.37,510.88 C405.92,509.06 406.98,508.83 411.84,509.24 C416.25,509.60 417.76,509.35 418.72,508.10 C419.80,506.68 419.94,506.73 419.97,508.58 C419.99,509.73 420.31,510.98 420.69,511.36 C422.81,513.48 421.32,517.47 412.86,532.37 C407.82,541.24 393.47,566.50 380.97,588.50 C353.78,636.33 320.41,695.31 314.07,706.74 ZM 435.00 702.54 C435.00,706.64 434.66,709.93 434.25,709.85 C433.84,709.76 423.49,704.58 411.25,698.33 L 389.00 686.96 L 389.00 674.16 L 412.00 662.54 L 435.00 650.92 L 435.00 665.69 L 419.75 673.02 L 404.50 680.34 L 419.75 687.71 L 435.00 695.07 ZM 548.98 674.50 L 548.95 686.50 L 525.96 698.28 C508.15,707.40 502.83,709.73 502.40,708.59 C502.09,707.78 501.98,704.51 502.17,701.31 L 502.50 695.50 L 516.93 688.45 C524.87,684.57 531.52,680.93 531.71,680.36 C531.91,679.78 525.52,676.23 517.53,672.46 L 503.00 665.61 L 503.00 658.81 C503.00,654.37 503.40,652.00 504.14,652.00 C504.77,652.00 515.12,657.06 527.13,663.25 ZM 464.76 712.50 L 461.30 722.50 L 455.74 722.80 C452.68,722.96 449.91,722.67 449.59,722.14 C449.26,721.62 454.00,706.86 460.12,689.35 C466.23,671.83 472.62,653.34 474.32,648.25 L 477.41 639.00 L 489.86 639.00 L 489.03 641.75 C488.32,644.12 476.16,679.57 464.76,712.50 ZM 505.25 661.50 C506.80,663.27 507.29,663.31 508.80,661.80 C510.26,660.34 510.40,658.64 508.99,659.51 C508.44,659.85 507.57,659.09 507.05,657.81 C506.54,656.54 506.07,655.95 505.99,656.50 C505.92,657.05 505.47,656.60 505.00,655.50 C504.28,653.83 504.13,654.04 504.07,656.79 C504.03,658.60 504.56,660.72 505.25,661.50 ZM 425.05 510.25 C423.81,512.31 422.72,514.00 422.61,514.00 C422.51,514.00 422.36,513.09 422.27,511.98 C422.19,510.87 422.55,510.22 423.07,510.54 C423.60,510.87 424.30,509.75 424.64,508.07 C424.97,506.38 425.60,505.00 426.03,505.00 C426.46,505.00 428.00,502.98 429.45,500.50 C430.90,498.02 432.27,496.00 432.49,496.00 C432.94,496.00 428.52,504.46 425.05,510.25 Z" fill="rgb(1,60,201)"/>
<path d="M 450.51 466.00 C436.54,490.70 417.09,524.97 378.98,592.00 C378.21,593.36 377.42,594.73 376.64,596.12 C378.09,593.56 379.54,591.01 380.97,588.50 C393.47,566.50 407.82,541.24 412.86,532.37 C421.32,517.47 422.81,513.48 420.69,511.36 C420.31,510.98 419.99,509.73 419.97,508.58 C419.94,506.73 419.80,506.68 418.72,508.10 C417.76,509.35 416.25,509.60 411.84,509.24 C406.98,508.83 405.92,509.06 404.37,510.88 C403.01,512.47 401.40,513.00 397.97,513.00 C395.45,513.00 392.51,513.66 391.44,514.47 C389.20,516.17 376.41,516.55 371.27,515.08 C369.50,514.57 366.92,512.93 365.54,511.45 C363.14,508.86 362.73,508.77 356.26,509.41 C352.54,509.78 348.08,510.31 346.34,510.59 C341.90,511.30 341.48,509.76 344.61,504.26 C346.11,501.64 346.84,499.95 346.23,500.50 C345.63,501.05 341.90,507.12 337.94,514.00 C334.76,519.51 331.74,524.75 328.87,529.74 C336.63,516.18 340.28,509.58 342.96,504.50 C345.27,500.10 347.80,496.01 348.57,495.40 C349.34,494.80 349.68,494.01 349.32,493.65 C348.96,493.29 349.22,493.00 349.89,493.00 C350.57,493.00 350.84,492.55 350.50,491.99 C350.15,491.44 350.57,490.72 351.43,490.39 C352.29,490.06 352.74,489.39 352.44,488.90 C352.13,488.40 352.43,488.00 353.11,488.00 C353.78,488.00 354.07,487.74 353.75,487.42 C353.43,487.09 353.89,485.99 354.77,484.96 C355.65,483.93 356.46,482.48 356.57,481.73 C356.94,479.22 367.12,462.00 368.23,462.00 C368.84,462.00 369.05,461.72 368.70,461.37 C368.35,461.02 369.13,458.88 370.43,456.62 C389.36,423.55 458.40,303.53 481.52,263.50 C502.48,227.21 525.84,186.62 538.04,165.28 C545.97,151.41 552.76,140.38 553.13,140.78 C553.50,141.18 558.05,149.15 563.25,158.50 C568.46,167.85 586.56,199.80 603.48,229.50 C620.40,259.20 636.66,287.76 639.62,292.97 C642.58,298.18 645.00,302.74 645.00,303.10 C645.00,303.46 642.86,304.30 640.25,304.96 C633.42,306.68 614.71,314.48 606.26,319.14 C602.29,321.33 594.93,326.07 589.92,329.67 C584.91,333.26 580.44,335.82 580.00,335.35 C579.55,334.88 573.24,323.78 565.97,310.68 C558.69,297.58 552.40,287.23 551.97,287.68 C551.55,288.13 541.31,306.05 529.23,327.50 C517.15,348.95 497.61,383.38 485.81,404.00 C474.01,424.62 458.12,452.52 450.51,466.00 ZM 505.25 661.50 C504.56,660.72 504.03,658.60 504.07,656.79 C504.13,654.04 504.28,653.83 505.00,655.50 C505.47,656.60 505.92,657.05 505.99,656.50 C506.07,655.95 506.54,656.54 507.05,657.81 C507.57,659.09 508.44,659.85 508.99,659.51 C510.40,658.64 510.26,660.34 508.80,661.80 C507.29,663.31 506.80,663.27 505.25,661.50 ZM 425.05 510.25 C428.52,504.46 432.94,496.00 432.49,496.00 C432.27,496.00 430.90,498.02 429.45,500.50 C428.00,502.98 426.46,505.00 426.03,505.00 C425.60,505.00 424.97,506.38 424.64,508.07 C424.30,509.75 423.60,510.87 423.07,510.54 C422.55,510.22 422.19,510.87 422.27,511.98 C422.36,513.09 422.51,514.00 422.61,514.00 C422.72,514.00 423.81,512.31 425.05,510.25 Z" fill="rgb(7,118,251)"/>
<path d="M 826.50 712.27 C817.82,714.30 814.92,714.38 744.00,714.57 C703.58,714.68 667.12,714.43 663.00,714.02 C633.53,711.06 607.09,698.57 588.50,678.84 C585.20,675.34 574.18,662.13 564.01,649.49 C543.45,623.91 536.33,616.28 527.50,610.32 C513.15,600.64 500.94,596.56 481.29,594.87 C473.70,594.22 467.35,593.57 467.17,593.43 C466.70,593.06 471.57,574.99 475.12,564.00 C479.57,550.20 487.21,531.45 494.04,517.60 C500.05,505.40 515.11,479.50 516.20,479.50 C516.52,479.50 523.19,487.38 531.01,497.00 C553.05,524.10 587.95,567.16 616.05,601.90 C639.74,631.20 642.04,633.74 647.67,636.74 C659.94,643.28 661.16,643.37 734.50,643.35 L 800.50 643.32 L 808.24 640.77 C817.98,637.56 824.49,633.40 831.22,626.11 C848.66,607.21 848.25,579.69 830.24,560.82 C824.16,554.44 818.83,550.96 810.20,547.72 C804.65,545.64 802.70,545.57 737.50,544.97 C664.50,544.29 663.58,544.22 642.95,538.07 C623.82,532.37 611.40,526.05 596.40,514.41 C582.52,503.64 572.15,490.57 563.84,473.34 C556.53,458.20 553.86,446.66 553.81,430.00 C553.77,412.08 557.51,396.86 565.60,382.10 C583.29,349.80 614.81,327.87 658.00,317.81 C667.46,315.61 667.99,315.60 780.75,315.26 C843.04,315.08 894.00,315.20 894.00,315.54 C894.00,315.87 892.91,318.02 891.59,320.32 C890.26,322.62 881.67,337.55 872.49,353.50 C863.31,369.45 855.34,383.06 854.78,383.75 C853.97,384.73 834.51,385.00 763.59,385.00 C760.51,385.00 757.53,385.00 754.64,385.00 C679.44,384.99 669.26,384.99 660.57,388.58 C658.87,389.28 657.24,390.12 655.19,391.12 C646.81,395.19 637.18,404.30 633.45,411.68 C630.75,417.02 630.51,418.37 630.50,428.02 C630.50,437.87 630.71,438.95 633.76,445.16 C637.91,453.60 647.27,462.57 656.47,466.91 C669.17,472.91 669.90,472.97 733.20,472.99 C766.28,472.99 796.35,473.47 803.70,474.09 C836.35,476.88 863.35,488.70 884.54,509.50 C900.15,524.83 909.34,540.19 915.34,561.00 C924.37,592.32 919.64,630.56 903.39,657.63 C886.19,686.29 861.04,704.16 826.50,712.27 Z" fill="rgb(19,31,45)"/>
<path d="M 0.00 465.00 L 0.00 0.00 L 564.00 0.00 L 1128.00 0.00 L 1128.00 465.00 L 1128.00 930.00 L 564.00 930.00 L 0.00 930.00 L 0.00 465.00 ZM 464.76 712.50 C476.16,679.57 488.32,644.12 489.03,641.75 L 489.86 639.00 L 483.64 639.00 L 477.41 639.00 L 474.32 648.25 C472.62,653.34 466.23,671.83 460.12,689.35 C454.00,706.86 449.26,721.62 449.59,722.14 C449.91,722.67 452.68,722.96 455.74,722.80 L 461.30 722.50 L 464.76 712.50 ZM 314.07 706.74 C320.47,695.20 354.30,635.40 378.98,592.00 C417.09,524.97 436.54,490.70 450.51,466.00 C458.12,452.52 474.01,424.62 485.81,404.00 C497.61,383.38 517.15,348.95 529.23,327.50 C541.31,306.05 551.55,288.13 551.97,287.68 C552.40,287.23 558.69,297.58 565.97,310.68 C573.24,323.78 579.55,334.88 580.00,335.35 C580.44,335.82 584.91,333.26 589.92,329.67 C594.93,326.07 602.29,321.33 606.26,319.14 C614.71,314.48 633.42,306.68 640.25,304.96 C642.86,304.30 645.00,303.46 645.00,303.10 C645.00,302.74 642.58,298.18 639.62,292.97 C636.66,287.76 620.40,259.20 603.48,229.50 C586.56,199.80 568.46,167.85 563.25,158.50 C558.05,149.15 553.50,141.18 553.13,140.78 C552.76,140.38 545.97,151.41 538.04,165.28 C525.84,186.62 502.48,227.21 481.52,263.50 C458.40,303.53 389.36,423.55 370.43,456.62 C369.13,458.88 368.35,461.02 368.70,461.37 C369.05,461.72 368.84,462.00 368.23,462.00 C367.12,462.00 356.94,479.22 356.57,481.73 C356.46,482.48 355.65,483.93 354.77,484.96 C353.89,485.99 353.43,487.09 353.75,487.42 C354.07,487.74 353.78,488.00 353.11,488.00 C352.43,488.00 352.13,488.40 352.44,488.90 C352.74,489.39 352.29,490.06 351.43,490.39 C350.57,490.72 350.15,491.44 350.50,491.99 C350.84,492.55 350.57,493.00 349.89,493.00 C349.22,493.00 348.96,493.29 349.32,493.65 C349.68,494.01 349.34,494.80 348.57,495.40 C347.80,496.01 345.27,500.10 342.96,504.50 C337.57,514.73 328.22,531.08 289.48,598.00 C276.36,620.65 233.27,695.64 227.32,706.14 C224.95,710.35 223.00,714.06 223.00,714.39 C223.00,714.73 242.46,714.99 266.25,714.99 L 309.50 714.97 L 314.07 706.74 ZM 826.50 712.27 C861.04,704.16 886.19,686.29 903.39,657.63 C919.64,630.56 924.37,592.32 915.34,561.00 C909.34,540.19 900.15,524.83 884.54,509.50 C863.35,488.70 836.35,476.88 803.70,474.09 C796.35,473.47 766.28,472.99 733.20,472.99 C669.90,472.97 669.17,472.91 656.47,466.91 C647.27,462.57 637.91,453.60 633.76,445.16 C630.71,438.95 630.50,437.87 630.50,428.02 C630.51,418.37 630.75,417.02 633.45,411.68 C637.18,404.30 646.81,395.19 655.19,391.12 C668.17,384.80 664.58,385.00 763.59,385.00 C834.51,385.00 853.97,384.73 854.78,383.75 C855.34,383.06 863.31,369.45 872.49,353.50 C881.67,337.55 890.26,322.62 891.59,320.32 C892.91,318.02 894.00,315.87 894.00,315.54 C894.00,315.20 843.04,315.08 780.75,315.26 C667.99,315.60 667.46,315.61 658.00,317.81 C614.81,327.87 583.29,349.80 565.60,382.10 C557.51,396.86 553.77,412.08 553.81,430.00 C553.86,446.66 556.53,458.20 563.84,473.34 C572.15,490.57 582.52,503.64 596.40,514.41 C611.40,526.05 623.82,532.37 642.95,538.07 C663.58,544.22 664.50,544.29 737.50,544.97 C802.70,545.57 804.65,545.64 810.20,547.72 C818.83,550.96 824.16,554.44 830.24,560.82 C848.25,579.69 848.66,607.21 831.22,626.11 C824.49,633.40 817.98,637.56 808.24,640.77 L 800.50 643.32 L 734.50 643.35 C661.16,643.37 659.94,643.28 647.67,636.74 C642.04,633.74 639.74,631.20 616.05,601.90 C587.95,567.16 553.05,524.10 531.01,497.00 C523.19,487.38 516.52,479.50 516.20,479.50 C515.11,479.50 500.05,505.40 494.04,517.60 C487.21,531.45 479.57,550.20 475.12,564.00 C471.57,574.99 466.70,593.06 467.17,593.43 C467.35,593.57 473.70,594.22 481.29,594.87 C500.94,596.56 513.15,600.64 527.50,610.32 C536.33,616.28 543.45,623.91 564.01,649.49 C574.18,662.13 585.20,675.34 588.50,678.84 C607.09,698.57 633.53,711.06 663.00,714.02 C667.12,714.43 703.58,714.68 744.00,714.57 C814.92,714.38 817.82,714.30 826.50,712.27 ZM 435.00 702.54 L 435.00 695.07 L 419.75 687.71 L 404.50 680.34 L 419.75 673.02 L 435.00 665.69 L 435.00 658.31 L 435.00 650.92 L 412.00 662.54 L 389.00 674.16 L 389.00 680.56 L 389.00 686.96 L 411.25 698.33 C423.49,704.58 433.84,709.76 434.25,709.85 C434.66,709.93 435.00,706.64 435.00,702.54 ZM 548.97 680.50 L 548.98 674.50 L 527.13 663.25 C515.12,657.06 504.77,652.00 504.14,652.00 C503.40,652.00 503.00,654.37 503.00,658.81 L 503.00 665.61 L 517.53 672.46 C525.52,676.23 531.91,679.78 531.71,680.36 C531.52,680.93 524.87,684.57 516.93,688.45 L 502.50 695.50 L 502.17 701.31 C501.98,704.51 502.09,707.78 502.40,708.59 C502.83,709.73 508.15,707.40 525.96,698.28 L 548.95 686.50 L 548.97 680.50 Z" fill="rgb(252,252,252)"/>
</g>
</svg>
